<?xml version="1.0" encoding="UTF-8" standalone="no"?>
<!DOCTYPE svg PUBLIC "-//W3C//DTD SVG 1.1//EN" "http://www.w3.org/Graphics/SVG/1.1/DTD/svg11.dtd">
<svg version="1.1" xmlns="http://www.w3.org/2000/svg" xmlns:xlink="http://www.w3.org/1999/xlink" preserveAspectRatio="xMidYMid meet" viewBox="0 0 640 640" width="640" height="640"><defs><path d="M345 295C345 133 345 43 345 25C345 11.19 333.81 0 320 0C306.19 0 295 11.19 295 25C295 43 295 133 295 295C133 295 43 295 25 295C11.19 295 0 306.19 0 320C0 333.81 11.19 345 25 345C43 345 133 345 295 345C295 507 295 597 295 615C295 628.81 306.19 640 320 640C333.81 640 345 628.81 345 615C345 597 345 507 345 345C507 345 597 345 615 345C628.81 345 640 333.81 640 320C640 306.19 628.81 295 615 295C579 295 489 295 345 295Z" id="cJ5lho9zf"></path></defs><g><g><g><use xlink:href="#cJ5lho9zf" opacity="1" fill="#ffffff" fill-opacity="1"></use><g><use xlink:href="#cJ5lho9zf" opacity="1" fill-opacity="0" stroke="#000000" stroke-width="1" stroke-opacity="0"></use></g></g></g></g></svg>